<svg xmlns="http://www.w3.org/2000/svg" width="145" height="145"><title>QR Code</title><desc>https://pasiopadelclub.fr/application</desc><path d="M0 0h145v145H0z" style="fill:#fff;fill-opacity:1"/><path d="M0 0h5v5H0zm5 0h5v5H5zm5 0h5v5h-5zm5 0h5v5h-5zm5 0h5v5h-5zm5 0h5v5h-5zm5 0h5v5h-5zm15 0h5v5h-5zm20 0h5v5h-5zm15 0h5v5h-5zm5 0h5v5h-5zm5 0h5v5h-5zm5 0h5v5h-5zm15 0h5v5h-5zm5 0h5v5h-5zm5 0h5v5h-5zm5 0h5v5h-5zm5 0h5v5h-5zm5 0h5v5h-5zm5 0h5v5h-5zM0 5h5v5H0zm30 0h5v5h-5zm10 0h5v5h-5zm5 0h5v5h-5zm10 0h5v5h-5zm5 0h5v5h-5zm5 0h5v5h-5zm5 0h5v5h-5zm5 0h5v5h-5zm5 0h5v5h-5zm5 0h5v5h-5zm25 0h5v5h-5zm30 0h5v5h-5zM0 10h5v5H0zm10 0h5v5h-5zm5 0h5v5h-5zm5 0h5v5h-5zm10 0h5v5h-5zm15 0h5v5h-5zm5 0h5v5h-5zm5 0h5v5h-5zm25 0h5v5h-5zm10 0h5v5h-5zm5 0h5v5h-5zm15 0h5v5h-5zm10 0h5v5h-5zm5 0h5v5h-5zm5 0h5v5h-5zm10 0h5v5h-5zM0 15h5v5H0zm10 0h5v5h-5zm5 0h5v5h-5zm5 0h5v5h-5zm10 0h5v5h-5zm10 0h5v5h-5zm5 0h5v5h-5zm10 0h5v5h-5zm30 0h5v5h-5zm25 0h5v5h-5zm10 0h5v5h-5zm5 0h5v5h-5zm5 0h5v5h-5zm10 0h5v5h-5zM0 20h5v5H0zm10 0h5v5h-5zm5 0h5v5h-5zm5 0h5v5h-5zm10 0h5v5h-5zm20 0h5v5h-5zm10 0h5v5h-5zm5 0h5v5h-5zm15 0h5v5h-5zm10 0h5v5h-5zm5 0h5v5h-5zm5 0h5v5h-5zm10 0h5v5h-5zm10 0h5v5h-5zm5 0h5v5h-5zm5 0h5v5h-5zm10 0h5v5h-5zM0 25h5v5H0zm30 0h5v5h-5zm10 0h5v5h-5zm10 0h5v5h-5zm15 0h5v5h-5zm5 0h5v5h-5zm5 0h5v5h-5zm5 0h5v5h-5zm5 0h5v5h-5zm15 0h5v5h-5zm10 0h5v5h-5zm30 0h5v5h-5zM0 30h5v5H0zm5 0h5v5H5zm5 0h5v5h-5zm5 0h5v5h-5zm5 0h5v5h-5zm5 0h5v5h-5zm5 0h5v5h-5zm10 0h5v5h-5zm10 0h5v5h-5zm10 0h5v5h-5zm10 0h5v5h-5zm10 0h5v5h-5zm10 0h5v5h-5zm10 0h5v5h-5zm10 0h5v5h-5zm5 0h5v5h-5zm5 0h5v5h-5zm5 0h5v5h-5zm5 0h5v5h-5zm5 0h5v5h-5zm5 0h5v5h-5zm-80 5h5v5h-5zm5 0h5v5h-5zm10 0h5v5h-5zm15 0h5v5h-5zm10 0h5v5h-5zM0 40h5v5H0zm5 0h5v5H5zm5 0h5v5h-5zm5 0h5v5h-5zm5 0h5v5h-5zm10 0h5v5h-5zm5 0h5v5h-5zm5 0h5v5h-5zm5 0h5v5h-5zm5 0h5v5h-5zm10 0h5v5h-5zm10 0h5v5h-5zm15 0h5v5h-5zm15 0h5v5h-5zm5 0h5v5h-5zm10 0h5v5h-5zm10 0h5v5h-5zm10 0h5v5h-5zM0 45h5v5H0zm5 0h5v5H5zm15 0h5v5h-5zm5 0h5v5h-5zm20 0h5v5h-5zm35 0h5v5h-5zm15 0h5v5h-5zm5 0h5v5h-5zm5 0h5v5h-5zm5 0h5v5h-5zm5 0h5v5h-5zm5 0h5v5h-5zm20 0h5v5h-5zM5 50h5v5H5zm5 0h5v5h-5zm5 0h5v5h-5zm5 0h5v5h-5zm5 0h5v5h-5zm5 0h5v5h-5zm5 0h5v5h-5zm5 0h5v5h-5zm5 0h5v5h-5zm10 0h5v5h-5zm5 0h5v5h-5zm15 0h5v5h-5zm10 0h5v5h-5zm5 0h5v5h-5zm20 0h5v5h-5zm5 0h5v5h-5zm5 0h5v5h-5zM5 55h5v5H5zm5 0h5v5h-5zm5 0h5v5h-5zm5 0h5v5h-5zm5 0h5v5h-5zm10 0h5v5h-5zm10 0h5v5h-5zm5 0h5v5h-5zm5 0h5v5h-5zm15 0h5v5h-5zm5 0h5v5h-5zm5 0h5v5h-5zm10 0h5v5h-5zm10 0h5v5h-5zm10 0h5v5h-5zm15 0h5v5h-5zm10 0h5v5h-5zM15 60h5v5h-5zm15 0h5v5h-5zm15 0h5v5h-5zm10 0h5v5h-5zm20 0h5v5h-5zm5 0h5v5h-5zm5 0h5v5h-5zm5 0h5v5h-5zm5 0h5v5h-5zm30 0h5v5h-5zm5 0h5v5h-5zM0 65h5v5H0zm5 0h5v5H5zm15 0h5v5h-5zm25 0h5v5h-5zm5 0h5v5h-5zm10 0h5v5h-5zm5 0h5v5h-5zm5 0h5v5h-5zm10 0h5v5h-5zm5 0h5v5h-5zm5 0h5v5h-5zm5 0h5v5h-5zm5 0h5v5h-5zm10 0h5v5h-5zm5 0h5v5h-5zm5 0h5v5h-5zm20 0h5v5h-5zM0 70h5v5H0zm15 0h5v5h-5zm5 0h5v5h-5zm10 0h5v5h-5zm10 0h5v5h-5zm10 0h5v5h-5zm15 0h5v5h-5zm5 0h5v5h-5zm5 0h5v5h-5zm5 0h5v5h-5zm5 0h5v5h-5zm15 0h5v5h-5zm5 0h5v5h-5zm10 0h5v5h-5zm10 0h5v5h-5zm5 0h5v5h-5zM5 75h5v5H5zm30 0h5v5h-5zm15 0h5v5h-5zm10 0h5v5h-5zm5 0h5v5h-5zm10 0h5v5h-5zm20 0h5v5h-5zm10 0h5v5h-5zm15 0h5v5h-5zm15 0h5v5h-5zM5 80h5v5H5zm20 0h5v5h-5zm5 0h5v5h-5zm10 0h5v5h-5zm5 0h5v5h-5zm5 0h5v5h-5zm10 0h5v5h-5zm10 0h5v5h-5zm5 0h5v5h-5zm10 0h5v5h-5zm30 0h5v5h-5zm10 0h5v5h-5zm5 0h5v5h-5zM0 85h5v5H0zm35 0h5v5h-5zm5 0h5v5h-5zm10 0h5v5h-5zm30 0h5v5h-5zm10 0h5v5h-5zm5 0h5v5h-5zm5 0h5v5h-5zm5 0h5v5h-5zm5 0h5v5h-5zm5 0h5v5h-5zm5 0h5v5h-5zm10 0h5v5h-5zm10 0h5v5h-5zM0 90h5v5H0zm15 0h5v5h-5zm5 0h5v5h-5zm10 0h5v5h-5zm5 0h5v5h-5zm10 0h5v5h-5zm5 0h5v5h-5zm5 0h5v5h-5zm5 0h5v5h-5zm15 0h5v5h-5zm5 0h5v5h-5zm10 0h5v5h-5zm15 0h5v5h-5zm10 0h5v5h-5zm5 0h5v5h-5zm10 0h5v5h-5zM0 95h5v5H0zm15 0h5v5h-5zm25 0h5v5h-5zm15 0h5v5h-5zm15 0h5v5h-5zm30 0h5v5h-5zm20 0h5v5h-5zm15 0h5v5h-5zM0 100h5v5H0zm10 0h5v5h-5zm5 0h5v5h-5zm10 0h5v5h-5zm5 0h5v5h-5zm10 0h5v5h-5zm10 0h5v5h-5zm5 0h5v5h-5zm20 0h5v5h-5zm10 0h5v5h-5zm10 0h5v5h-5zm5 0h5v5h-5zm5 0h5v5h-5zm5 0h5v5h-5zm5 0h5v5h-5zm5 0h5v5h-5zm10 0h5v5h-5zm5 0h5v5h-5zm5 0h5v5h-5zm-100 5h5v5h-5zm5 0h5v5h-5zm5 0h5v5h-5zm10 0h5v5h-5zm5 0h5v5h-5zm5 0h5v5h-5zm10 0h5v5h-5zm20 0h5v5h-5zm20 0h5v5h-5zm5 0h5v5h-5zm5 0h5v5h-5zm5 0h5v5h-5zm5 0h5v5h-5zM0 110h5v5H0zm5 0h5v5H5zm5 0h5v5h-5zm5 0h5v5h-5zm5 0h5v5h-5zm5 0h5v5h-5zm5 0h5v5h-5zm10 0h5v5h-5zm10 0h5v5h-5zm15 0h5v5h-5zm5 0h5v5h-5zm5 0h5v5h-5zm5 0h5v5h-5zm10 0h5v5h-5zm5 0h5v5h-5zm5 0h5v5h-5zm10 0h5v5h-5zm10 0h5v5h-5zm5 0h5v5h-5zm5 0h5v5h-5zM0 115h5v5H0zm30 0h5v5h-5zm30 0h5v5h-5zm5 0h5v5h-5zm10 0h5v5h-5zm15 0h5v5h-5zm5 0h5v5h-5zm5 0h5v5h-5zm20 0h5v5h-5zM0 120h5v5H0zm10 0h5v5h-5zm5 0h5v5h-5zm5 0h5v5h-5zm10 0h5v5h-5zm10 0h5v5h-5zm5 0h5v5h-5zm15 0h5v5h-5zm10 0h5v5h-5zm15 0h5v5h-5zm15 0h5v5h-5zm5 0h5v5h-5zm5 0h5v5h-5zm5 0h5v5h-5zm5 0h5v5h-5zm10 0h5v5h-5zM0 125h5v5H0zm10 0h5v5h-5zm5 0h5v5h-5zm5 0h5v5h-5zm10 0h5v5h-5zm10 0h5v5h-5zm10 0h5v5h-5zm30 0h5v5h-5zm15 0h5v5h-5zm30 0h5v5h-5zm5 0h5v5h-5zm5 0h5v5h-5zm5 0h5v5h-5zM0 130h5v5H0zm10 0h5v5h-5zm5 0h5v5h-5zm5 0h5v5h-5zm10 0h5v5h-5zm10 0h5v5h-5zm5 0h5v5h-5zm10 0h5v5h-5zm5 0h5v5h-5zm15 0h5v5h-5zm15 0h5v5h-5zm5 0h5v5h-5zm10 0h5v5h-5zm5 0h5v5h-5zm5 0h5v5h-5zm5 0h5v5h-5zm5 0h5v5h-5zm5 0h5v5h-5zm5 0h5v5h-5zM0 135h5v5H0zm30 0h5v5h-5zm10 0h5v5h-5zm10 0h5v5h-5zm5 0h5v5h-5zm15 0h5v5h-5zm5 0h5v5h-5zm5 0h5v5h-5zm10 0h5v5h-5zm10 0h5v5h-5zm20 0h5v5h-5zm5 0h5v5h-5zm10 0h5v5h-5zM0 140h5v5H0zm5 0h5v5H5zm5 0h5v5h-5zm5 0h5v5h-5zm5 0h5v5h-5zm5 0h5v5h-5zm5 0h5v5h-5zm10 0h5v5h-5zm5 0h5v5h-5zm5 0h5v5h-5zm5 0h5v5h-5zm30 0h5v5h-5zm10 0h5v5h-5zm10 0h5v5h-5zm15 0h5v5h-5zm5 0h5v5h-5zm5 0h5v5h-5z" style="fill:#000"/></svg>