<svg xmlns="http://www.w3.org/2000/svg" width="87" height="87"><title>QR Code</title><desc>https://pasiopadelclub.fr/application</desc><path d="M0 0h87v87H0z" style="fill:#fff;fill-opacity:1"/><path d="M0 0h3v3H0zm3 0h3v3H3zm3 0h3v3H6zm3 0h3v3H9zm3 0h3v3h-3zm3 0h3v3h-3zm3 0h3v3h-3zm9 0h3v3h-3zm12 0h3v3h-3zm9 0h3v3h-3zm3 0h3v3h-3zm3 0h3v3h-3zm3 0h3v3h-3zm9 0h3v3h-3zm3 0h3v3h-3zm3 0h3v3h-3zm3 0h3v3h-3zm3 0h3v3h-3zm3 0h3v3h-3zm3 0h3v3h-3zM0 3h3v3H0zm18 0h3v3h-3zm6 0h3v3h-3zm3 0h3v3h-3zm6 0h3v3h-3zm3 0h3v3h-3zm3 0h3v3h-3zm3 0h3v3h-3zm3 0h3v3h-3zm3 0h3v3h-3zm3 0h3v3h-3zm15 0h3v3h-3zm18 0h3v3h-3zM0 6h3v3H0zm6 0h3v3H6zm3 0h3v3H9zm3 0h3v3h-3zm6 0h3v3h-3zm9 0h3v3h-3zm3 0h3v3h-3zm3 0h3v3h-3zm15 0h3v3h-3zm6 0h3v3h-3zm3 0h3v3h-3zm9 0h3v3h-3zm6 0h3v3h-3zm3 0h3v3h-3zm3 0h3v3h-3zm6 0h3v3h-3zM0 9h3v3H0zm6 0h3v3H6zm3 0h3v3H9zm3 0h3v3h-3zm6 0h3v3h-3zm6 0h3v3h-3zm3 0h3v3h-3zm6 0h3v3h-3zm18 0h3v3h-3zm15 0h3v3h-3zm6 0h3v3h-3zm3 0h3v3h-3zm3 0h3v3h-3zm6 0h3v3h-3zM0 12h3v3H0zm6 0h3v3H6zm3 0h3v3H9zm3 0h3v3h-3zm6 0h3v3h-3zm12 0h3v3h-3zm6 0h3v3h-3zm3 0h3v3h-3zm9 0h3v3h-3zm6 0h3v3h-3zm3 0h3v3h-3zm3 0h3v3h-3zm6 0h3v3h-3zm6 0h3v3h-3zm3 0h3v3h-3zm3 0h3v3h-3zm6 0h3v3h-3zM0 15h3v3H0zm18 0h3v3h-3zm6 0h3v3h-3zm6 0h3v3h-3zm9 0h3v3h-3zm3 0h3v3h-3zm3 0h3v3h-3zm3 0h3v3h-3zm3 0h3v3h-3zm9 0h3v3h-3zm6 0h3v3h-3zm18 0h3v3h-3zM0 18h3v3H0zm3 0h3v3H3zm3 0h3v3H6zm3 0h3v3H9zm3 0h3v3h-3zm3 0h3v3h-3zm3 0h3v3h-3zm6 0h3v3h-3zm6 0h3v3h-3zm6 0h3v3h-3zm6 0h3v3h-3zm6 0h3v3h-3zm6 0h3v3h-3zm6 0h3v3h-3zm6 0h3v3h-3zm3 0h3v3h-3zm3 0h3v3h-3zm3 0h3v3h-3zm3 0h3v3h-3zm3 0h3v3h-3zm3 0h3v3h-3zm-48 3h3v3h-3zm3 0h3v3h-3zm6 0h3v3h-3zm9 0h3v3h-3zm6 0h3v3h-3zM0 24h3v3H0zm3 0h3v3H3zm3 0h3v3H6zm3 0h3v3H9zm3 0h3v3h-3zm6 0h3v3h-3zm3 0h3v3h-3zm3 0h3v3h-3zm3 0h3v3h-3zm3 0h3v3h-3zm6 0h3v3h-3zm6 0h3v3h-3zm9 0h3v3h-3zm9 0h3v3h-3zm3 0h3v3h-3zm6 0h3v3h-3zm6 0h3v3h-3zm6 0h3v3h-3zM0 27h3v3H0zm3 0h3v3H3zm9 0h3v3h-3zm3 0h3v3h-3zm12 0h3v3h-3zm21 0h3v3h-3zm9 0h3v3h-3zm3 0h3v3h-3zm3 0h3v3h-3zm3 0h3v3h-3zm3 0h3v3h-3zm3 0h3v3h-3zm12 0h3v3h-3zM3 30h3v3H3zm3 0h3v3H6zm3 0h3v3H9zm3 0h3v3h-3zm3 0h3v3h-3zm3 0h3v3h-3zm3 0h3v3h-3zm3 0h3v3h-3zm3 0h3v3h-3zm6 0h3v3h-3zm3 0h3v3h-3zm9 0h3v3h-3zm6 0h3v3h-3zm3 0h3v3h-3zm12 0h3v3h-3zm3 0h3v3h-3zm3 0h3v3h-3zM3 33h3v3H3zm3 0h3v3H6zm3 0h3v3H9zm3 0h3v3h-3zm3 0h3v3h-3zm6 0h3v3h-3zm6 0h3v3h-3zm3 0h3v3h-3zm3 0h3v3h-3zm9 0h3v3h-3zm3 0h3v3h-3zm3 0h3v3h-3zm6 0h3v3h-3zm6 0h3v3h-3zm6 0h3v3h-3zm9 0h3v3h-3zm6 0h3v3h-3zM9 36h3v3H9zm9 0h3v3h-3zm9 0h3v3h-3zm6 0h3v3h-3zm12 0h3v3h-3zm3 0h3v3h-3zm3 0h3v3h-3zm3 0h3v3h-3zm3 0h3v3h-3zm18 0h3v3h-3zm3 0h3v3h-3zM0 39h3v3H0zm3 0h3v3H3zm9 0h3v3h-3zm15 0h3v3h-3zm3 0h3v3h-3zm6 0h3v3h-3zm3 0h3v3h-3zm3 0h3v3h-3zm6 0h3v3h-3zm3 0h3v3h-3zm3 0h3v3h-3zm3 0h3v3h-3zm3 0h3v3h-3zm6 0h3v3h-3zm3 0h3v3h-3zm3 0h3v3h-3zm12 0h3v3h-3zM0 42h3v3H0zm9 0h3v3H9zm3 0h3v3h-3zm6 0h3v3h-3zm6 0h3v3h-3zm6 0h3v3h-3zm9 0h3v3h-3zm3 0h3v3h-3zm3 0h3v3h-3zm3 0h3v3h-3zm3 0h3v3h-3zm9 0h3v3h-3zm3 0h3v3h-3zm6 0h3v3h-3zm6 0h3v3h-3zm3 0h3v3h-3zM3 45h3v3H3zm18 0h3v3h-3zm9 0h3v3h-3zm6 0h3v3h-3zm3 0h3v3h-3zm6 0h3v3h-3zm12 0h3v3h-3zm6 0h3v3h-3zm9 0h3v3h-3zm9 0h3v3h-3zM3 48h3v3H3zm12 0h3v3h-3zm3 0h3v3h-3zm6 0h3v3h-3zm3 0h3v3h-3zm3 0h3v3h-3zm6 0h3v3h-3zm6 0h3v3h-3zm3 0h3v3h-3zm6 0h3v3h-3zm18 0h3v3h-3zm6 0h3v3h-3zm3 0h3v3h-3zM0 51h3v3H0zm21 0h3v3h-3zm3 0h3v3h-3zm6 0h3v3h-3zm18 0h3v3h-3zm6 0h3v3h-3zm3 0h3v3h-3zm3 0h3v3h-3zm3 0h3v3h-3zm3 0h3v3h-3zm3 0h3v3h-3zm3 0h3v3h-3zm6 0h3v3h-3zm6 0h3v3h-3zM0 54h3v3H0zm9 0h3v3H9zm3 0h3v3h-3zm6 0h3v3h-3zm3 0h3v3h-3zm6 0h3v3h-3zm3 0h3v3h-3zm3 0h3v3h-3zm3 0h3v3h-3zm9 0h3v3h-3zm3 0h3v3h-3zm6 0h3v3h-3zm9 0h3v3h-3zm6 0h3v3h-3zm3 0h3v3h-3zm6 0h3v3h-3zM0 57h3v3H0zm9 0h3v3H9zm15 0h3v3h-3zm9 0h3v3h-3zm9 0h3v3h-3zm18 0h3v3h-3zm12 0h3v3h-3zm9 0h3v3h-3zM0 60h3v3H0zm6 0h3v3H6zm3 0h3v3H9zm6 0h3v3h-3zm3 0h3v3h-3zm6 0h3v3h-3zm6 0h3v3h-3zm3 0h3v3h-3zm12 0h3v3h-3zm6 0h3v3h-3zm6 0h3v3h-3zm3 0h3v3h-3zm3 0h3v3h-3zm3 0h3v3h-3zm3 0h3v3h-3zm3 0h3v3h-3zm6 0h3v3h-3zm3 0h3v3h-3zm3 0h3v3h-3zm-60 3h3v3h-3zm3 0h3v3h-3zm3 0h3v3h-3zm6 0h3v3h-3zm3 0h3v3h-3zm3 0h3v3h-3zm6 0h3v3h-3zm12 0h3v3h-3zm12 0h3v3h-3zm3 0h3v3h-3zm3 0h3v3h-3zm3 0h3v3h-3zm3 0h3v3h-3zM0 66h3v3H0zm3 0h3v3H3zm3 0h3v3H6zm3 0h3v3H9zm3 0h3v3h-3zm3 0h3v3h-3zm3 0h3v3h-3zm6 0h3v3h-3zm6 0h3v3h-3zm9 0h3v3h-3zm3 0h3v3h-3zm3 0h3v3h-3zm3 0h3v3h-3zm6 0h3v3h-3zm3 0h3v3h-3zm3 0h3v3h-3zm6 0h3v3h-3zm6 0h3v3h-3zm3 0h3v3h-3zm3 0h3v3h-3zM0 69h3v3H0zm18 0h3v3h-3zm18 0h3v3h-3zm3 0h3v3h-3zm6 0h3v3h-3zm9 0h3v3h-3zm3 0h3v3h-3zm3 0h3v3h-3zm12 0h3v3h-3zM0 72h3v3H0zm6 0h3v3H6zm3 0h3v3H9zm3 0h3v3h-3zm6 0h3v3h-3zm6 0h3v3h-3zm3 0h3v3h-3zm9 0h3v3h-3zm6 0h3v3h-3zm9 0h3v3h-3zm9 0h3v3h-3zm3 0h3v3h-3zm3 0h3v3h-3zm3 0h3v3h-3zm3 0h3v3h-3zm6 0h3v3h-3zM0 75h3v3H0zm6 0h3v3H6zm3 0h3v3H9zm3 0h3v3h-3zm6 0h3v3h-3zm6 0h3v3h-3zm6 0h3v3h-3zm18 0h3v3h-3zm9 0h3v3h-3zm18 0h3v3h-3zm3 0h3v3h-3zm3 0h3v3h-3zm3 0h3v3h-3zM0 78h3v3H0zm6 0h3v3H6zm3 0h3v3H9zm3 0h3v3h-3zm6 0h3v3h-3zm6 0h3v3h-3zm3 0h3v3h-3zm6 0h3v3h-3zm3 0h3v3h-3zm9 0h3v3h-3zm9 0h3v3h-3zm3 0h3v3h-3zm6 0h3v3h-3zm3 0h3v3h-3zm3 0h3v3h-3zm3 0h3v3h-3zm3 0h3v3h-3zm3 0h3v3h-3zm3 0h3v3h-3zM0 81h3v3H0zm18 0h3v3h-3zm6 0h3v3h-3zm6 0h3v3h-3zm3 0h3v3h-3zm9 0h3v3h-3zm3 0h3v3h-3zm3 0h3v3h-3zm6 0h3v3h-3zm6 0h3v3h-3zm12 0h3v3h-3zm3 0h3v3h-3zm6 0h3v3h-3zM0 84h3v3H0zm3 0h3v3H3zm3 0h3v3H6zm3 0h3v3H9zm3 0h3v3h-3zm3 0h3v3h-3zm3 0h3v3h-3zm6 0h3v3h-3zm3 0h3v3h-3zm3 0h3v3h-3zm3 0h3v3h-3zm18 0h3v3h-3zm6 0h3v3h-3zm6 0h3v3h-3zm9 0h3v3h-3zm3 0h3v3h-3zm3 0h3v3h-3z" style="fill:#000"/></svg>