<svg xmlns="http://www.w3.org/2000/svg" width="174" height="174"><title>QR Code</title><desc>https://pasiopadelclub.fr/application</desc><path d="M0 0h174v174H0z" style="fill:#fff;fill-opacity:1"/><path d="M0 0h6v6H0zm6 0h6v6H6zm6 0h6v6h-6zm6 0h6v6h-6zm6 0h6v6h-6zm6 0h6v6h-6zm6 0h6v6h-6zm18 0h6v6h-6zm24 0h6v6h-6zm18 0h6v6h-6zm6 0h6v6h-6zm6 0h6v6h-6zm6 0h6v6h-6zm18 0h6v6h-6zm6 0h6v6h-6zm6 0h6v6h-6zm6 0h6v6h-6zm6 0h6v6h-6zm6 0h6v6h-6zm6 0h6v6h-6zM0 6h6v6H0zm36 0h6v6h-6zm12 0h6v6h-6zm6 0h6v6h-6zm12 0h6v6h-6zm6 0h6v6h-6zm6 0h6v6h-6zm6 0h6v6h-6zm6 0h6v6h-6zm6 0h6v6h-6zm6 0h6v6h-6zm30 0h6v6h-6zm36 0h6v6h-6zM0 12h6v6H0zm12 0h6v6h-6zm6 0h6v6h-6zm6 0h6v6h-6zm12 0h6v6h-6zm18 0h6v6h-6zm6 0h6v6h-6zm6 0h6v6h-6zm30 0h6v6h-6zm12 0h6v6h-6zm6 0h6v6h-6zm18 0h6v6h-6zm12 0h6v6h-6zm6 0h6v6h-6zm6 0h6v6h-6zm12 0h6v6h-6zM0 18h6v6H0zm12 0h6v6h-6zm6 0h6v6h-6zm6 0h6v6h-6zm12 0h6v6h-6zm12 0h6v6h-6zm6 0h6v6h-6zm12 0h6v6h-6zm36 0h6v6h-6zm30 0h6v6h-6zm12 0h6v6h-6zm6 0h6v6h-6zm6 0h6v6h-6zm12 0h6v6h-6zM0 24h6v6H0zm12 0h6v6h-6zm6 0h6v6h-6zm6 0h6v6h-6zm12 0h6v6h-6zm24 0h6v6h-6zm12 0h6v6h-6zm6 0h6v6h-6zm18 0h6v6h-6zm12 0h6v6h-6zm6 0h6v6h-6zm6 0h6v6h-6zm12 0h6v6h-6zm12 0h6v6h-6zm6 0h6v6h-6zm6 0h6v6h-6zm12 0h6v6h-6zM0 30h6v6H0zm36 0h6v6h-6zm12 0h6v6h-6zm12 0h6v6h-6zm18 0h6v6h-6zm6 0h6v6h-6zm6 0h6v6h-6zm6 0h6v6h-6zm6 0h6v6h-6zm18 0h6v6h-6zm12 0h6v6h-6zm36 0h6v6h-6zM0 36h6v6H0zm6 0h6v6H6zm6 0h6v6h-6zm6 0h6v6h-6zm6 0h6v6h-6zm6 0h6v6h-6zm6 0h6v6h-6zm12 0h6v6h-6zm12 0h6v6h-6zm12 0h6v6h-6zm12 0h6v6h-6zm12 0h6v6h-6zm12 0h6v6h-6zm12 0h6v6h-6zm12 0h6v6h-6zm6 0h6v6h-6zm6 0h6v6h-6zm6 0h6v6h-6zm6 0h6v6h-6zm6 0h6v6h-6zm6 0h6v6h-6zm-96 6h6v6h-6zm6 0h6v6h-6zm12 0h6v6h-6zm18 0h6v6h-6zm12 0h6v6h-6zM0 48h6v6H0zm6 0h6v6H6zm6 0h6v6h-6zm6 0h6v6h-6zm6 0h6v6h-6zm12 0h6v6h-6zm6 0h6v6h-6zm6 0h6v6h-6zm6 0h6v6h-6zm6 0h6v6h-6zm12 0h6v6h-6zm12 0h6v6h-6zm18 0h6v6h-6zm18 0h6v6h-6zm6 0h6v6h-6zm12 0h6v6h-6zm12 0h6v6h-6zm12 0h6v6h-6zM0 54h6v6H0zm6 0h6v6H6zm18 0h6v6h-6zm6 0h6v6h-6zm24 0h6v6h-6zm42 0h6v6h-6zm18 0h6v6h-6zm6 0h6v6h-6zm6 0h6v6h-6zm6 0h6v6h-6zm6 0h6v6h-6zm6 0h6v6h-6zm24 0h6v6h-6zM6 60h6v6H6zm6 0h6v6h-6zm6 0h6v6h-6zm6 0h6v6h-6zm6 0h6v6h-6zm6 0h6v6h-6zm6 0h6v6h-6zm6 0h6v6h-6zm6 0h6v6h-6zm12 0h6v6h-6zm6 0h6v6h-6zm18 0h6v6h-6zm12 0h6v6h-6zm6 0h6v6h-6zm24 0h6v6h-6zm6 0h6v6h-6zm6 0h6v6h-6zM6 66h6v6H6zm6 0h6v6h-6zm6 0h6v6h-6zm6 0h6v6h-6zm6 0h6v6h-6zm12 0h6v6h-6zm12 0h6v6h-6zm6 0h6v6h-6zm6 0h6v6h-6zm18 0h6v6h-6zm6 0h6v6h-6zm6 0h6v6h-6zm12 0h6v6h-6zm12 0h6v6h-6zm12 0h6v6h-6zm18 0h6v6h-6zm12 0h6v6h-6zM18 72h6v6h-6zm18 0h6v6h-6zm18 0h6v6h-6zm12 0h6v6h-6zm24 0h6v6h-6zm6 0h6v6h-6zm6 0h6v6h-6zm6 0h6v6h-6zm6 0h6v6h-6zm36 0h6v6h-6zm6 0h6v6h-6zM0 78h6v6H0zm6 0h6v6H6zm18 0h6v6h-6zm30 0h6v6h-6zm6 0h6v6h-6zm12 0h6v6h-6zm6 0h6v6h-6zm6 0h6v6h-6zm12 0h6v6h-6zm6 0h6v6h-6zm6 0h6v6h-6zm6 0h6v6h-6zm6 0h6v6h-6zm12 0h6v6h-6zm6 0h6v6h-6zm6 0h6v6h-6zm24 0h6v6h-6zM0 84h6v6H0zm18 0h6v6h-6zm6 0h6v6h-6zm12 0h6v6h-6zm12 0h6v6h-6zm12 0h6v6h-6zm18 0h6v6h-6zm6 0h6v6h-6zm6 0h6v6h-6zm6 0h6v6h-6zm6 0h6v6h-6zm18 0h6v6h-6zm6 0h6v6h-6zm12 0h6v6h-6zm12 0h6v6h-6zm6 0h6v6h-6zM6 90h6v6H6zm36 0h6v6h-6zm18 0h6v6h-6zm12 0h6v6h-6zm6 0h6v6h-6zm12 0h6v6h-6zm24 0h6v6h-6zm12 0h6v6h-6zm18 0h6v6h-6zm18 0h6v6h-6zM6 96h6v6H6zm24 0h6v6h-6zm6 0h6v6h-6zm12 0h6v6h-6zm6 0h6v6h-6zm6 0h6v6h-6zm12 0h6v6h-6zm12 0h6v6h-6zm6 0h6v6h-6zm12 0h6v6h-6zm36 0h6v6h-6zm12 0h6v6h-6zm6 0h6v6h-6zM0 102h6v6H0zm42 0h6v6h-6zm6 0h6v6h-6zm12 0h6v6h-6zm36 0h6v6h-6zm12 0h6v6h-6zm6 0h6v6h-6zm6 0h6v6h-6zm6 0h6v6h-6zm6 0h6v6h-6zm6 0h6v6h-6zm6 0h6v6h-6zm12 0h6v6h-6zm12 0h6v6h-6zM0 108h6v6H0zm18 0h6v6h-6zm6 0h6v6h-6zm12 0h6v6h-6zm6 0h6v6h-6zm12 0h6v6h-6zm6 0h6v6h-6zm6 0h6v6h-6zm6 0h6v6h-6zm18 0h6v6h-6zm6 0h6v6h-6zm12 0h6v6h-6zm18 0h6v6h-6zm12 0h6v6h-6zm6 0h6v6h-6zm12 0h6v6h-6zM0 114h6v6H0zm18 0h6v6h-6zm30 0h6v6h-6zm18 0h6v6h-6zm18 0h6v6h-6zm36 0h6v6h-6zm24 0h6v6h-6zm18 0h6v6h-6zM0 120h6v6H0zm12 0h6v6h-6zm6 0h6v6h-6zm12 0h6v6h-6zm6 0h6v6h-6zm12 0h6v6h-6zm12 0h6v6h-6zm6 0h6v6h-6zm24 0h6v6h-6zm12 0h6v6h-6zm12 0h6v6h-6zm6 0h6v6h-6zm6 0h6v6h-6zm6 0h6v6h-6zm6 0h6v6h-6zm6 0h6v6h-6zm12 0h6v6h-6zm6 0h6v6h-6zm6 0h6v6h-6zm-120 6h6v6h-6zm6 0h6v6h-6zm6 0h6v6h-6zm12 0h6v6h-6zm6 0h6v6h-6zm6 0h6v6h-6zm12 0h6v6h-6zm24 0h6v6h-6zm24 0h6v6h-6zm6 0h6v6h-6zm6 0h6v6h-6zm6 0h6v6h-6zm6 0h6v6h-6zM0 132h6v6H0zm6 0h6v6H6zm6 0h6v6h-6zm6 0h6v6h-6zm6 0h6v6h-6zm6 0h6v6h-6zm6 0h6v6h-6zm12 0h6v6h-6zm12 0h6v6h-6zm18 0h6v6h-6zm6 0h6v6h-6zm6 0h6v6h-6zm6 0h6v6h-6zm12 0h6v6h-6zm6 0h6v6h-6zm6 0h6v6h-6zm12 0h6v6h-6zm12 0h6v6h-6zm6 0h6v6h-6zm6 0h6v6h-6zM0 138h6v6H0zm36 0h6v6h-6zm36 0h6v6h-6zm6 0h6v6h-6zm12 0h6v6h-6zm18 0h6v6h-6zm6 0h6v6h-6zm6 0h6v6h-6zm24 0h6v6h-6zM0 144h6v6H0zm12 0h6v6h-6zm6 0h6v6h-6zm6 0h6v6h-6zm12 0h6v6h-6zm12 0h6v6h-6zm6 0h6v6h-6zm18 0h6v6h-6zm12 0h6v6h-6zm18 0h6v6h-6zm18 0h6v6h-6zm6 0h6v6h-6zm6 0h6v6h-6zm6 0h6v6h-6zm6 0h6v6h-6zm12 0h6v6h-6zM0 150h6v6H0zm12 0h6v6h-6zm6 0h6v6h-6zm6 0h6v6h-6zm12 0h6v6h-6zm12 0h6v6h-6zm12 0h6v6h-6zm36 0h6v6h-6zm18 0h6v6h-6zm36 0h6v6h-6zm6 0h6v6h-6zm6 0h6v6h-6zm6 0h6v6h-6zM0 156h6v6H0zm12 0h6v6h-6zm6 0h6v6h-6zm6 0h6v6h-6zm12 0h6v6h-6zm12 0h6v6h-6zm6 0h6v6h-6zm12 0h6v6h-6zm6 0h6v6h-6zm18 0h6v6h-6zm18 0h6v6h-6zm6 0h6v6h-6zm12 0h6v6h-6zm6 0h6v6h-6zm6 0h6v6h-6zm6 0h6v6h-6zm6 0h6v6h-6zm6 0h6v6h-6zm6 0h6v6h-6zM0 162h6v6H0zm36 0h6v6h-6zm12 0h6v6h-6zm12 0h6v6h-6zm6 0h6v6h-6zm18 0h6v6h-6zm6 0h6v6h-6zm6 0h6v6h-6zm12 0h6v6h-6zm12 0h6v6h-6zm24 0h6v6h-6zm6 0h6v6h-6zm12 0h6v6h-6zM0 168h6v6H0zm6 0h6v6H6zm6 0h6v6h-6zm6 0h6v6h-6zm6 0h6v6h-6zm6 0h6v6h-6zm6 0h6v6h-6zm12 0h6v6h-6zm6 0h6v6h-6zm6 0h6v6h-6zm6 0h6v6h-6zm36 0h6v6h-6zm12 0h6v6h-6zm12 0h6v6h-6zm18 0h6v6h-6zm6 0h6v6h-6zm6 0h6v6h-6z" style="fill:#000"/></svg>