<svg xmlns="http://www.w3.org/2000/svg" fill="none" viewBox="0 0 360 360"><mask id="a"><rect width="360" height="360" fill="#fff" rx="0" ry="0"/></mask><g mask="url(#a)"><path fill="#ffd5dc" d="M0 0h360v360H0z"/><path fill="#f9c9b6" stroke="#000" stroke-width="4" d="M234 342.5c-14.4-20-25.67-58.67-27-78L138.5 235 110 342.5z"/><path fill="#000" d="M130.37 263.69c-2.1.2-4.22.31-6.37.31-30.78 0-56.05-21.57-58.76-49.1L127 241.5c.38 5.48 1.55 13.32 3.37 22.19" style="mix-blend-mode:multiply" transform="translate(80 23)"/><path fill="#f9c9b6" stroke="#000" stroke-width="4" d="M261.94 174.37v.01l.1.4.14.65a75.72 75.72 0 0 1-147.25 35.27l-.2-.74L98 140.13l-.06-.29a75.72 75.72 0 0 1 147.26-35.29l.05.21.02.08.05.2.05.2v.01l16.4 68.44.08.34.08.34Z"/><path stroke="#000" stroke-width="4" d="M169.5 200.5c2.5 17 31 25 57 5.5"/><path stroke="#000" stroke-linecap="round" stroke-width="4" d="M137 128.5c6.17 2.5 21.1 3 31.5-15M204 106c5.17 5.33 18.1 12.8 28.5 0m-85.35 22.46-6.15-5.43m85.22-11.59 1.78-8m-72.4 21.37-4.05-7.13m66.59-6.66.94-8.15m-56.41 16.33-2.2-7.9m49.53-1.27-.78-8.16"/><g stroke="#000" stroke-width="4"><path fill="#000" d="M271.73 111.8C271.73 45.7 235.27 1 190.86 1 133.96 1 76 22.34 76 123.25c0 24.97 10.66 43.58 25.56 57.29a43 43 0 0 1-3.5-4.92c-2.88-26.98 29.17-47.7 60.54-67.96 16.65-10.75 33.11-21.39 44.05-32.76 9.6 5.43 37.79 28.2 43.16 37.42 2.88 4.94 7.51 21.87 10.67 41.63 10.34-12.42 15.25-24.84 15.25-42.16Z"/><path d="M203.26 74.25c13.18-11.95 32.89-39.21 31.62-56.92"/></g><path fill="#000" d="M147.29 153.07c.11.82 1.14 1 1.72.41 2.46-2.52 6.25-4.36 10.65-4.89 2.6-.3 5.1-.12 7.32.48.75.2 1.5-.44 1.23-1.17a10.84 10.84 0 0 0-20.91 5.17Zm64.09-10c.12.82 1.15 1 1.73.41 2.44-2.48 6.19-4.3 10.54-4.83 2.56-.3 5.03-.12 7.23.47.75.2 1.5-.44 1.23-1.17a10.74 10.74 0 0 0-20.73 5.12"/><path stroke="#000" stroke-width="4" d="M193.13 149.095c1.949 13.863 10.412 23.782 10.412 23.782s-2.631 6.429-12.812 5.84"/><path stroke="#000" stroke-width="8" d="M114.5 160.18a23.8 23.8 0 0 0-7.42-1.18c-10.5 0-19 6.5-18 18.5 1.04 12.5 8.5 17 19 17a19.6 19.6 0 0 0 6.92-1.27"/><path fill="#f9c9b6" d="M115.5 193.04a19.4 19.4 0 0 1-7.42 1.46c-10.5 0-17.96-4.5-19-17-1-12 7.5-18.5 18-18.5 3.14 0 6.19.6 8.92 1.73l-.5 32.3Z"/><path stroke="#000" stroke-width="4" d="M111.5 167.5c-4-1.83-12.8-2.8-16 8"/><path stroke="#000" stroke-width="4" d="M101 168c2.17 1.83 6.3 7.5 5.5 15.5"/><g transform="translate(87 189)"><circle cx="25" cy="2" r="4" fill="#f9c9b6"/><circle cx="26" cy="1" r="1" fill="#fff"/></g><path fill="#000" stroke="#000" stroke-width="4.27" d="M313.37 362.86H40.46l.1-.2c4.55-9.28 12.94-26.35 23.84-41.63 6.2-8.67 13.13-16.65 20.54-22.27 7.41-5.61 15.12-8.73 22.95-8.04 15.06 1.31 28.46 9.56 41.93 17.83l3.83 2.35c14.48 8.82 29.35 17.02 45.72 13.43 5.53-1.2 9.26-3.8 11.6-7.16 2.32-3.3 3.15-7.15 3.3-10.66.14-3.52-.4-6.85-.96-9.26a40 40 0 0 0-.75-2.78c3.63-3.64 7.47-5.77 11.43-6.73 4.3-1.03 8.89-.73 13.72.7 9.73 2.87 20.14 10.25 30.3 19.73 18.61 17.37 35.69 41.14 45.36 54.68Z"/></g></svg>