<svg xmlns="http://www.w3.org/2000/svg" fill="none" viewBox="0 0 360 360"><mask id="a"><rect width="360" height="360" fill="#fff" rx="0" ry="0"/></mask><g mask="url(#a)"><path fill="#a8e6cf" d="M0 0h360v360H0z"/><path fill="#f9c9b6" stroke="#000" stroke-width="4" d="M234 342.5c-14.4-20-25.67-58.67-27-78L138.5 235 110 342.5z"/><path fill="#000" d="M130.37 263.69c-2.1.2-4.22.31-6.37.31-30.78 0-56.05-21.57-58.76-49.1L127 241.5c.38 5.48 1.55 13.32 3.37 22.19" style="mix-blend-mode:multiply" transform="translate(80 23)"/><path fill="#f9c9b6" stroke="#000" stroke-width="4" d="M261.94 174.37v.01l.1.4.14.65a75.72 75.72 0 0 1-147.25 35.27l-.2-.74L98 140.13l-.06-.29a75.72 75.72 0 0 1 147.26-35.29l.05.21.02.08.05.2.05.2v.01l16.4 68.44.08.34.08.34Z"/><path fill="#000" d="M234.73 208.7a36 36 0 0 0 1.18-12.54 4.98 4.98 0 0 0-6.8-4.2c-4.26 1.67-18.03 6.88-27.62 8.2-10.52 1.44-26.66-.32-31.44-.91a4.98 4.98 0 0 0-5.53 5.74 36 36 0 0 0 70.21 3.7Z"/><path fill="#fc909f" d="M221.83 222.55a32 32 0 0 1-37.2 4.62 21.5 21.5 0 0 1 37.2-4.62"/><path stroke="#000" stroke-linecap="round" stroke-width="4" d="M137 128.5c6.17 2.5 21.1 3 31.5-15M204 106c5.17 5.33 18.1 12.8 28.5 0"/><g fill="#9287ff"><path d="M236.99 88.18c-8-6.4-21.84-7-27.5-6.5l-8-26.5c13.6 3.2 32 24 35.5 33" opacity=".1"/><path d="M134.8 22.76s5.72-3.96 29.94-10.06c24.21-6.1 33.04-3.72 33.04-3.72l11.8 72.84s-8.05-.18-28.04 4.19c-20 4.38-29.56 9.67-29.56 9.67l-17.2-72.9Z"/><path d="M97.99 97.68c-6.8-41.6 23.33-68.17 37-75.5l16.98 73.5c-19.2-39.6-45.33-15.17-54 2Z"/><path d="M116.49 141.68c-7.2-27.2 22-41.84 35.5-46-7-16.34-23-31-42.5-13-18 30.5-11 54-5.5 72z" opacity=".1"/></g><g fill="#000" transform="translate(142 119)"><ellipse cx="16.53" cy="29.4" rx="9" ry="13.5" transform="rotate(-6.78 16.53 29.4)"/><ellipse cx="80.53" cy="19.4" rx="9" ry="13.5" transform="rotate(-6.28 80.53 19.4)"/></g><g stroke="#fff" stroke-width="4"><path stroke-linecap="round" d="m136.5 153.5-34.5 6.62"/><path d="m137.47 129.53 38.73-5.43a6 6 0 0 1 6.77 5.1l5.57 39.62a6 6 0 0 1-5.1 6.78l-34.48 4.84a6 6 0 0 1-6.65-4.48l-9.81-39.01a6 6 0 0 1 4.98-7.4Zm110.45-15.31-38.72 5.44a6 6 0 0 0-5.1 6.78l5.56 39.6a6 6 0 0 0 6.78 5.11l34.47-4.84a6 6 0 0 0 5.16-6.14l-1.32-40.2a6 6 0 0 0-6.83-5.75Zm-62.42 33.9 22-3.5"/></g><path stroke="#000" stroke-width="4" d="M190.271 158.928c5.225-1.986 14.327-1.387 13.766 8.71-.495 8.975-9.697 10.753-12.637 8.662"/><path stroke="#000" stroke-width="8" d="M114.5 160.18a23.8 23.8 0 0 0-7.42-1.18c-10.5 0-19 6.5-18 18.5 1.04 12.5 8.5 17 19 17a19.6 19.6 0 0 0 6.92-1.27"/><path fill="#f9c9b6" d="M115.5 193.04a19.4 19.4 0 0 1-7.42 1.46c-10.5 0-17.96-4.5-19-17-1-12 7.5-18.5 18-18.5 3.14 0 6.19.6 8.92 1.73l-.5 32.3Z"/><path stroke="#000" stroke-width="4" d="M111.5 167.5c-4-1.83-12.8-2.8-16 8"/><path stroke="#000" stroke-width="4" d="M101 168c2.17 1.83 6.3 7.5 5.5 15.5"/><g stroke="#000" stroke-width="4"><path fill="#f4d150" d="M313.7 363H40.36c16.31-29.34 39.5-48.02 77.08-56.6 16.02-3.65 34.67-5.47 56.56-5.47 9.46 0 16.81 1.44 23.8 3.35 2.58.7 5.18 1.5 7.84 2.3 4.4 1.34 8.97 2.72 13.91 3.86l.14.03.15.01c46.12 3.8 73.78 24.3 93.85 52.5Z"/><path fill="#f4d150" d="m105.93 308.58 9.15-19.6a1 1 0 0 1 1.25-.51c37.93 13.42 72.43 12.48 104.4 3.57a1 1 0 0 1 1.09.38l13.93 19.05a.98.98 0 0 1-.42 1.5c-33.6 13.2-96.67 10.95-128.91-3.07a.98.98 0 0 1-.49-1.32Z"/><path fill="#fff" d="m105.93 308.58 9.15-19.6a1 1 0 0 1 1.25-.51c37.93 13.42 72.43 12.48 104.4 3.57a1 1 0 0 1 1.09.38l13.93 19.05a.98.98 0 0 1-.42 1.5c-33.6 13.2-96.67 10.95-128.91-3.07a.98.98 0 0 1-.49-1.32Z" opacity=".75"/></g></g></svg>