<svg xmlns="http://www.w3.org/2000/svg" fill="none" viewBox="0 0 360 360"><mask id="a"><rect width="360" height="360" fill="#fff" rx="0" ry="0"/></mask><g mask="url(#a)"><path fill="#c0aede" d="M0 0h360v360H0z"/><path fill="#ac6651" stroke="#000" stroke-width="4" d="M234 342.5c-14.4-20-25.67-58.67-27-78L138.5 235 110 342.5z"/><path fill="#000" d="M130.37 263.69c-2.1.2-4.22.31-6.37.31-30.78 0-56.05-21.57-58.76-49.1L127 241.5c.38 5.48 1.55 13.32 3.37 22.19" style="mix-blend-mode:multiply" transform="translate(80 23)"/><path fill="#ac6651" stroke="#000" stroke-width="4" d="M261.94 174.37v.01l.1.4.14.65a75.72 75.72 0 0 1-147.25 35.27l-.2-.74L98 140.13l-.06-.29a75.72 75.72 0 0 1 147.26-35.29l.05.21.02.08.05.2.05.2v.01l16.4 68.44.08.34.08.34Z"/><path stroke="#000" stroke-width="4" d="M169.5 200.5c2.5 17 31 25 57 5.5"/><path stroke="#000" stroke-linecap="round" stroke-width="4" d="M209 112.21c5.67-2.66 19-5.1 27 6.5m-102.42 18.81c2.07-5.9 9.68-17.12 23.56-14.7"/><path stroke="#fff" stroke-width="4" d="M189 67c14.67-.67 40.4-8.8 26-36m-52 34c14.67-.67 40.4-8.8 26-36m-62 47c14.67-.67 40.4-8.8 26-36"/><path fill="#000" d="M147.29 153.07c.11.82 1.14 1 1.72.41 2.46-2.52 6.25-4.36 10.65-4.89 2.6-.3 5.1-.12 7.32.48.75.2 1.5-.44 1.23-1.17a10.84 10.84 0 0 0-20.91 5.17Zm64.09-10c.12.82 1.15 1 1.73.41 2.44-2.48 6.19-4.3 10.54-4.83 2.56-.3 5.03-.12 7.23.47.75.2 1.5-.44 1.23-1.17a10.74 10.74 0 0 0-20.73 5.12"/><g stroke="#fc909f" stroke-width="4" transform="translate(102 111)"><circle cx="122.5" cy="28" r="26"/><circle cx="55.5" cy="37" r="26"/><path d="M97.5 35a8 8 0 0 0-16 0M30 39 0 44.5"/></g><path stroke="#000" stroke-width="4" d="M190.271 158.928c5.225-1.986 14.327-1.387 13.766 8.71-.495 8.975-9.697 10.753-12.637 8.662M121 162.25v-1.12l-.95-.59a24.9 24.9 0 0 0-12.97-3.54c-5.64 0-10.92 1.75-14.68 5.3-3.8 3.58-5.86 8.83-5.31 15.37.52 6.37 2.66 11.06 6.2 14.17-.29 1-.37 2.08-.24 3.21a8.98 8.98 0 0 0 4.6 7.08c2.44 1.37 5.55 1.87 8.87 1.87 5.48 0 10.29-2.95 13.95-6.89l.53-.57z"/><path fill="#ac6651" d="M126.97 177.98c.07-.65.1-1.3.1-1.98 0-10.22-9.5-17-20-17-10.47 0-18.98 6.5-17.98 18.5.56 6.68 2.95 11.07 6.65 13.72a5.7 5.7 0 0 0-.68 3.6c.62 5.28 5.13 7.18 11.46 7.18 11.1 0 19.9-14.05 20.45-24.02"/><path stroke="#000" stroke-width="4" d="M111.5 167.5c-4-1.83-12.8-2.8-16 8"/><path stroke="#000" stroke-width="4" d="M101 168c2.17 1.83 6.3 7.5 5.5 15.5"/><g transform="translate(87 196)"><circle cx="25" cy="2" r="4" fill="#e0ddff"/><circle cx="26" cy="1" r="1" fill="#fff"/></g><g stroke="#000" stroke-width="4"><path fill="#f4d150" d="M313.7 363H40.36c16.31-29.34 39.5-48.02 77.08-56.6 16.02-3.65 34.67-5.47 56.56-5.47 9.46 0 16.81 1.44 23.8 3.35 2.58.7 5.18 1.5 7.84 2.3 4.4 1.34 8.97 2.72 13.91 3.86l.14.03.15.01c46.12 3.8 73.78 24.3 93.85 52.5Z"/><path fill="#f4d150" d="m105.93 308.58 9.15-19.6a1 1 0 0 1 1.25-.51c37.93 13.42 72.43 12.48 104.4 3.57a1 1 0 0 1 1.09.38l13.93 19.05a.98.98 0 0 1-.42 1.5c-33.6 13.2-96.67 10.95-128.91-3.07a.98.98 0 0 1-.49-1.32Z"/><path fill="#fff" d="m105.93 308.58 9.15-19.6a1 1 0 0 1 1.25-.51c37.93 13.42 72.43 12.48 104.4 3.57a1 1 0 0 1 1.09.38l13.93 19.05a.98.98 0 0 1-.42 1.5c-33.6 13.2-96.67 10.95-128.91-3.07a.98.98 0 0 1-.49-1.32Z" opacity=".75"/></g></g></svg>