<svg xmlns="http://www.w3.org/2000/svg" fill="none" viewBox="0 0 360 360"><mask id="a"><rect width="360" height="360" fill="#fff" rx="0" ry="0"/></mask><g mask="url(#a)"><path fill="#c0aede" d="M0 0h360v360H0z"/><path fill="#ac6651" stroke="#000" stroke-width="4" d="M234 342.5c-14.4-20-25.67-58.67-27-78L138.5 235 110 342.5z"/><path fill="#000" d="M130.37 263.69c-2.1.2-4.22.31-6.37.31-30.78 0-56.05-21.57-58.76-49.1L127 241.5c.38 5.48 1.55 13.32 3.37 22.19" style="mix-blend-mode:multiply" transform="translate(80 23)"/><path fill="#ac6651" stroke="#000" stroke-width="4" d="M261.94 174.37v.01l.1.4.14.65a75.72 75.72 0 0 1-147.25 35.27l-.2-.74L98 140.13l-.06-.29a75.72 75.72 0 0 1 147.26-35.29l.05.21.02.08.05.2.05.2v.01l16.4 68.44.08.34.08.34Z"/><path stroke="#000" stroke-width="4" d="M169.5 200.5c2.5 17 31 25 57 5.5"/><path stroke="#000" stroke-linecap="round" stroke-width="4" d="M209 112.21c5.67-2.66 19-5.1 27 6.5m-102.42 18.81c2.07-5.9 9.68-17.12 23.56-14.7"/><path stroke="#77311d" stroke-width="4" d="M189 67c14.67-.67 40.4-8.8 26-36m-52 34c14.67-.67 40.4-8.8 26-36m-62 47c14.67-.67 40.4-8.8 26-36"/><g fill="#000" transform="translate(142 119)"><ellipse cx="16.53" cy="29.4" rx="9" ry="13.5" transform="rotate(-6.78 16.53 29.4)"/><ellipse cx="80.53" cy="19.4" rx="9" ry="13.5" transform="rotate(-6.28 80.53 19.4)"/></g><path stroke="#000" stroke-width="4" d="M193.687 153.056c.206 3.838 1.698 12.08 6.049 14.297 5.438 2.77 1.175 11.953-9.006 11.364"/><path stroke="#000" stroke-width="8" d="M114.5 160.18a23.8 23.8 0 0 0-7.42-1.18c-10.5 0-19 6.5-18 18.5 1.04 12.5 8.5 17 19 17a19.6 19.6 0 0 0 6.92-1.27"/><path fill="#ac6651" d="M115.5 193.04a19.4 19.4 0 0 1-7.42 1.46c-10.5 0-17.96-4.5-19-17-1-12 7.5-18.5 18-18.5 3.14 0 6.19.6 8.92 1.73l-.5 32.3Z"/><path stroke="#000" stroke-width="4" d="M111.5 167.5c-4-1.83-12.8-2.8-16 8"/><path stroke="#000" stroke-width="4" d="M101 168c2.17 1.83 6.3 7.5 5.5 15.5"/><path fill="#6bd9e9" stroke="#000" stroke-width="4.27" d="M313.37 362.86H40.46l.1-.2c4.55-9.28 12.94-26.35 23.84-41.63 6.2-8.67 13.13-16.65 20.54-22.27 7.41-5.61 15.12-8.73 22.95-8.04 15.06 1.31 28.46 9.56 41.93 17.83l3.83 2.35c14.48 8.82 29.35 17.02 45.72 13.43 5.53-1.2 9.26-3.8 11.6-7.16 2.32-3.3 3.15-7.15 3.3-10.66.14-3.52-.4-6.85-.96-9.26a40 40 0 0 0-.75-2.78c3.63-3.64 7.47-5.77 11.43-6.73 4.3-1.03 8.89-.73 13.72.7 9.73 2.87 20.14 10.25 30.3 19.73 18.61 17.37 35.69 41.14 45.36 54.68Z"/></g></svg>