<svg xmlns="http://www.w3.org/2000/svg" fill="none" viewBox="0 0 360 360"><mask id="a"><rect width="360" height="360" fill="#fff" rx="0" ry="0"/></mask><g mask="url(#a)"><path fill="#d1f4d9" d="M0 0h360v360H0z"/><path fill="#ac6651" stroke="#000" stroke-width="4" d="M234 342.5c-14.4-20-25.67-58.67-27-78L138.5 235 110 342.5z"/><path fill="#000" d="M130.37 263.69c-2.1.2-4.22.31-6.37.31-30.78 0-56.05-21.57-58.76-49.1L127 241.5c.38 5.48 1.55 13.32 3.37 22.19" style="mix-blend-mode:multiply" transform="translate(80 23)"/><path fill="#ac6651" stroke="#000" stroke-width="4" d="M261.94 174.37v.01l.1.4.14.65a75.72 75.72 0 0 1-147.25 35.27l-.2-.74L98 140.13l-.06-.29a75.72 75.72 0 0 1 147.26-35.29l.05.21.02.08.05.2.05.2v.01l16.4 68.44.08.34.08.34Z"/><path stroke="#000" stroke-width="4" d="M169.5 200.5c2.5 17 31 25 57 5.5"/><path stroke="#000" stroke-linecap="round" stroke-width="4" d="M209 112.21c5.67-2.66 19-5.1 27 6.5m-102.42 18.81c2.07-5.9 9.68-17.12 23.56-14.7m-21.07 8.64-6.14-5.43m103.03-12.87 6.15-5.43m-96.59 18.08-4.04-7.13m87.03-9.17 4.05-7.13M150.6 122.2l-2.2-7.9m68.04-5.4 2.2-7.9"/><g fill="#fc909f"><path d="M236.99 88.18c-8-6.4-21.84-7-27.5-6.5l-8-26.5c13.6 3.2 32 24 35.5 33" opacity=".1"/><path d="M134.8 22.76s5.72-3.96 29.94-10.06c24.21-6.1 33.04-3.72 33.04-3.72l11.8 72.84s-8.05-.18-28.04 4.19c-20 4.38-29.56 9.67-29.56 9.67l-17.2-72.9Z"/><path d="M97.99 97.68c-6.8-41.6 23.33-68.17 37-75.5l16.98 73.5c-19.2-39.6-45.33-15.17-54 2Z"/><path d="M116.49 141.68c-7.2-27.2 22-41.84 35.5-46-7-16.34-23-31-42.5-13-18 30.5-11 54-5.5 72z" opacity=".1"/></g><g transform="translate(142 119)"><circle cx="15.24" cy="20.24" r="12" fill="#ffedef" transform="rotate(-6.28 15.24 20.24)"/><ellipse cx="16.53" cy="29.4" fill="#000" rx="9" ry="13.5" transform="rotate(-6.78 16.53 29.4)"/><circle cx="79.02" cy="11.61" r="12" fill="#ffedef" transform="rotate(-6.28 79.02 11.61)"/><ellipse cx="80.53" cy="19.4" fill="#000" rx="9" ry="13.5" transform="rotate(-6.28 80.53 19.4)"/><g stroke="#77311d" stroke-width="4"><path stroke-linecap="round" d="M-5.5 34.5-40 41.12"/><path d="M-4.53 10.53 34.2 5.1a6 6 0 0 1 6.77 5.1l5.57 39.62a6 6 0 0 1-5.1 6.78L6.96 61.44a6 6 0 0 1-6.65-4.48L-9.5 17.95a6 6 0 0 1 4.98-7.4ZM105.92-4.78 67.2.66a6 6 0 0 0-5.1 6.78l5.56 39.6a6 6 0 0 0 6.78 5.11l34.47-4.84a6 6 0 0 0 5.16-6.14L112.75.97a6 6 0 0 0-6.83-5.75ZM43.5 29.12l22-3.5"/></g></g><path stroke="#000" stroke-width="4" d="M193.687 153.056c.206 3.838 1.698 12.08 6.049 14.297 5.438 2.77 1.175 11.953-9.006 11.364M121 162.25v-1.12l-.95-.59a24.9 24.9 0 0 0-12.97-3.54c-5.64 0-10.92 1.75-14.68 5.3-3.8 3.58-5.86 8.83-5.31 15.37.52 6.37 2.66 11.06 6.2 14.17-.29 1-.37 2.08-.24 3.21a8.98 8.98 0 0 0 4.6 7.08c2.44 1.37 5.55 1.87 8.87 1.87 5.48 0 10.29-2.95 13.95-6.89l.53-.57z"/><path fill="#ac6651" d="M126.97 177.98c.07-.65.1-1.3.1-1.98 0-10.22-9.5-17-20-17-10.47 0-18.98 6.5-17.98 18.5.56 6.68 2.95 11.07 6.65 13.72a5.7 5.7 0 0 0-.68 3.6c.62 5.28 5.13 7.18 11.46 7.18 11.1 0 19.9-14.05 20.45-24.02"/><path stroke="#000" stroke-width="4" d="M111.5 167.5c-4-1.83-12.8-2.8-16 8"/><path stroke="#000" stroke-width="4" d="M101 168c2.17 1.83 6.3 7.5 5.5 15.5"/><g stroke="#000" stroke-width="4"><path fill="#77311d" d="M313.7 363H40.36c16.31-29.34 39.5-48.02 77.08-56.6 16.02-3.65 34.67-5.47 56.56-5.47 9.46 0 16.81 1.44 23.8 3.35 2.58.7 5.18 1.5 7.84 2.3 4.4 1.34 8.97 2.72 13.91 3.86l.14.03.15.01c46.12 3.8 73.78 24.3 93.85 52.5Z"/><path fill="#77311d" d="m105.93 308.58 9.15-19.6a1 1 0 0 1 1.25-.51c37.93 13.42 72.43 12.48 104.4 3.57a1 1 0 0 1 1.09.38l13.93 19.05a.98.98 0 0 1-.42 1.5c-33.6 13.2-96.67 10.95-128.91-3.07a.98.98 0 0 1-.49-1.32Z"/><path fill="#fff" d="m105.93 308.58 9.15-19.6a1 1 0 0 1 1.25-.51c37.93 13.42 72.43 12.48 104.4 3.57a1 1 0 0 1 1.09.38l13.93 19.05a.98.98 0 0 1-.42 1.5c-33.6 13.2-96.67 10.95-128.91-3.07a.98.98 0 0 1-.49-1.32Z" opacity=".75"/></g></g></svg>