<svg xmlns="http://www.w3.org/2000/svg" fill="none" viewBox="0 0 360 360"><mask id="a"><rect width="360" height="360" fill="#fff" rx="0" ry="0"/></mask><g mask="url(#a)"><path fill="#ffdfbf" d="M0 0h360v360H0z"/><path fill="#f9c9b6" stroke="#000" stroke-width="4" d="M234 342.5c-14.4-20-25.67-58.67-27-78L138.5 235 110 342.5z"/><path fill="#000" d="M130.37 263.69c-2.1.2-4.22.31-6.37.31-30.78 0-56.05-21.57-58.76-49.1L127 241.5c.38 5.48 1.55 13.32 3.37 22.19" style="mix-blend-mode:multiply" transform="translate(80 23)"/><path fill="#f9c9b6" stroke="#000" stroke-width="4" d="M261.94 174.37v.01l.1.4.14.65a75.72 75.72 0 0 1-147.25 35.27l-.2-.74L98 140.13l-.06-.29a75.72 75.72 0 0 1 147.26-35.29l.05.21.02.08.05.2.05.2v.01l16.4 68.44.08.34.08.34Z"/><path stroke="#000" stroke-width="4" d="M169.5 200.5c2.5 17 31 25 57 5.5"/><path stroke="#000" stroke-linecap="round" stroke-width="4" d="M209 112.21c5.67-2.66 19-5.1 27 6.5m-102.42 18.81c2.07-5.9 9.68-17.12 23.56-14.7m-21.07 8.64-6.14-5.43m103.03-12.87 6.15-5.43m-96.59 18.08-4.04-7.13m87.03-9.17 4.05-7.13M150.6 122.2l-2.2-7.9m68.04-5.4 2.2-7.9"/><g stroke="#000"><path fill="#6bd9e9" stroke-width="3.82" d="m154.84 99.82 1.88.3v.08l-.04.16-.12.52c-.12.45-.3 1.09-.6 1.9a41.7 41.7 0 0 1-3.4 6.92c-3.17 5.32-8.7 12.66-18.31 21.6 29.97.74 55-8.92 72.82-19.04a156.4 156.4 0 0 0 21.71-14.87 118 118 0 0 0 7.5-6.7l.1-.1.01-.01 2.29-2.38.93 3.16-1.84.54 1.84-.54v.05l.05.13.15.52a817 817 0 0 1 2.69 9.28c1.75 6.14 4.14 14.58 6.66 23.77 5.03 18.35 10.6 39.81 12.7 51.97 3.49 20.32-1.91 35.74-5.1 44.87-.63 1.77-1.17 3.3-1.54 4.6.06.04.12.1.22.16.6.42 1.65.91 3.18 1.4 3.02.96 7.32 1.74 11.92 2.19 4.6.44 9.38.53 13.34.14 1.98-.2 3.7-.5 5.08-.92a6.85 6.85 0 0 0 2.58-1.27c.02-.08.03-.29-.02-.68-.1-.78-.4-1.87-.93-3.32-.8-2.15-1.97-4.8-3.35-7.88l-1.46-3.3c-3.93-8.94-8.65-20.56-9.68-32.4-1.15-13.16 1.45-24.42 3.79-34.54l.11-.48c2.39-10.34 4.38-19.32 2.34-28.42-3.1-13.8-7.32-25.3-13.8-33.57-6.42-8.17-15.13-13.27-27.5-14.21l-1.28-.1-.4-1.22c-5.7-17.57-13.38-29.05-23.18-36.17s-21.96-10.05-36.94-10.05c-27.7 0-57.5 10.52-79.88 28.72-22.35 18.18-37.14 43.9-35.2 74.33 2.13 33.6-.3 59.06-5.8 77.72-5 17-12.59 28.46-21.68 35.14 1.19.61 2.78 1.39 4.77 2.27 5.02 2.24 12.59 5.2 22.67 8.03 19.34 5.43 47.95 10.38 85.71 8.89-8.32-7.15-16.72-15.83-23.37-25-7.63-10.53-13.14-21.94-13.3-32.58-.19-12.62.67-45.67.93-52.5.62-15.9 10.82-28.15 20.54-36.3a96.6 96.6 0 0 1 18.96-12.34l.2-.1.13-.06.1-.05h.02v-.01l.8 1.74Zm0 0 1.88.3.56-3.5-3.23 1.46zm100.23 126.57.03.04z"/><path stroke-width="4" d="M240 69c.5 4.5-.3 13.5-1.5 19.5"/></g><g fill="#000" transform="translate(142 119)"><ellipse cx="16.53" cy="29.4" rx="9" ry="13.5" transform="rotate(-6.78 16.53 29.4)"/><ellipse cx="80.53" cy="19.4" rx="9" ry="13.5" transform="rotate(-6.28 80.53 19.4)"/></g><path stroke="#000" stroke-width="4" d="M193.687 153.056c.206 3.838 1.698 12.08 6.049 14.297 5.438 2.77 1.175 11.953-9.006 11.364M121 162.25v-1.12l-.95-.59a24.9 24.9 0 0 0-12.97-3.54c-5.64 0-10.92 1.75-14.68 5.3-3.8 3.58-5.86 8.83-5.31 15.37.52 6.37 2.66 11.06 6.2 14.17-.29 1-.37 2.08-.24 3.21a8.98 8.98 0 0 0 4.6 7.08c2.44 1.37 5.55 1.87 8.87 1.87 5.48 0 10.29-2.95 13.95-6.89l.53-.57z"/><path fill="#f9c9b6" d="M126.97 177.98c.07-.65.1-1.3.1-1.98 0-10.22-9.5-17-20-17-10.47 0-18.98 6.5-17.98 18.5.56 6.68 2.95 11.07 6.65 13.72a5.7 5.7 0 0 0-.68 3.6c.62 5.28 5.13 7.18 11.46 7.18 11.1 0 19.9-14.05 20.45-24.02"/><path stroke="#000" stroke-width="4" d="M111.5 167.5c-4-1.83-12.8-2.8-16 8"/><path stroke="#000" stroke-width="4" d="M101 168c2.17 1.83 6.3 7.5 5.5 15.5"/><path fill="#ac6651" stroke="#000" stroke-width="4.27" d="M313.37 362.86H40.46l.1-.2c4.55-9.28 12.94-26.35 23.84-41.63 6.2-8.67 13.13-16.65 20.54-22.27 7.41-5.61 15.12-8.73 22.95-8.04 15.06 1.31 28.46 9.56 41.93 17.83l3.83 2.35c14.48 8.82 29.35 17.02 45.72 13.43 5.53-1.2 9.26-3.8 11.6-7.16 2.32-3.3 3.15-7.15 3.3-10.66.14-3.52-.4-6.85-.96-9.26a40 40 0 0 0-.75-2.78c3.63-3.64 7.47-5.77 11.43-6.73 4.3-1.03 8.89-.73 13.72.7 9.73 2.87 20.14 10.25 30.3 19.73 18.61 17.37 35.69 41.14 45.36 54.68Z"/></g></svg>