<svg xmlns="http://www.w3.org/2000/svg" fill="none" viewBox="0 0 360 360"><mask id="a"><rect width="360" height="360" fill="#fff" rx="0" ry="0"/></mask><g mask="url(#a)"><path fill="#ffd5dc" d="M0 0h360v360H0z"/><path fill="#f9c9b6" stroke="#000" stroke-width="4" d="M234 342.5c-14.4-20-25.67-58.67-27-78L138.5 235 110 342.5z"/><path fill="#000" d="M130.37 263.69c-2.1.2-4.22.31-6.37.31-30.78 0-56.05-21.57-58.76-49.1L127 241.5c.38 5.48 1.55 13.32 3.37 22.19" style="mix-blend-mode:multiply" transform="translate(80 23)"/><path fill="#f9c9b6" stroke="#000" stroke-width="4" d="M261.94 174.37v.01l.1.4.14.65a75.72 75.72 0 0 1-147.25 35.27l-.2-.74L98 140.13l-.06-.29a75.72 75.72 0 0 1 147.26-35.29l.05.21.02.08.05.2.05.2v.01l16.4 68.44.08.34.08.34Z"/><path stroke="#000" stroke-width="4" d="M169.5 200.5c2.5 17 31 25 57 5.5"/><path stroke="#000" stroke-linecap="round" stroke-width="4" d="M137 128.5c6.17 2.5 21.1 3 31.5-15M204 106c5.17 5.33 18.1 12.8 28.5 0"/><g stroke="#000" stroke-width="4"><path fill="#f4d150" d="M271.73 111.8C271.73 45.7 235.27 1 190.86 1 133.96 1 76 22.34 76 123.25c0 24.97 10.66 43.58 25.56 57.29a43 43 0 0 1-3.5-4.92c-2.88-26.98 29.17-47.7 60.54-67.96 16.65-10.75 33.11-21.39 44.05-32.76 9.6 5.43 37.79 28.2 43.16 37.42 2.88 4.94 7.51 21.87 10.67 41.63 10.34-12.42 15.25-24.84 15.25-42.16Z"/><path d="M203.26 74.25c13.18-11.95 32.89-39.21 31.62-56.92"/></g><path fill="#d2eff3" d="M168.47 143.36c1.86 6.36-5.04 1.48-11.4 3.33-6.36 1.86-9.78 9.76-11.64 3.4a12.001 12.001 0 0 1 23.04-6.73m63.79-9.19c1.64 6.42-4.7 1.52-11.11 3.15-6.43 1.64-10.51 9.19-12.15 2.77a12 12 0 1 1 23.26-5.92"/><path fill="#000" d="M147.29 153.07c.11.82 1.14 1 1.72.41 2.46-2.52 6.25-4.36 10.65-4.89 2.6-.3 5.1-.12 7.32.48.75.2 1.5-.44 1.23-1.17a10.84 10.84 0 0 0-20.91 5.17Zm64.09-10c.12.82 1.15 1 1.73.41 2.44-2.48 6.19-4.3 10.54-4.83 2.56-.3 5.03-.12 7.23.47.75.2 1.5-.44 1.23-1.17a10.74 10.74 0 0 0-20.73 5.12"/><path stroke="#000" stroke-width="4" d="M193.687 153.056c.206 3.838 1.698 12.08 6.049 14.297 5.438 2.77 1.175 11.953-9.006 11.364M121 162.25v-1.12l-.95-.59a24.9 24.9 0 0 0-12.97-3.54c-5.64 0-10.92 1.75-14.68 5.3-3.8 3.58-5.86 8.83-5.31 15.37.52 6.37 2.66 11.06 6.2 14.17-.29 1-.37 2.08-.24 3.21a8.98 8.98 0 0 0 4.6 7.08c2.44 1.37 5.55 1.87 8.87 1.87 5.48 0 10.29-2.95 13.95-6.89l.53-.57z"/><path fill="#f9c9b6" d="M126.97 177.98c.07-.65.1-1.3.1-1.98 0-10.22-9.5-17-20-17-10.47 0-18.98 6.5-17.98 18.5.56 6.68 2.95 11.07 6.65 13.72a5.7 5.7 0 0 0-.68 3.6c.62 5.28 5.13 7.18 11.46 7.18 11.1 0 19.9-14.05 20.45-24.02"/><path stroke="#000" stroke-width="4" d="M111.5 167.5c-4-1.83-12.8-2.8-16 8"/><path stroke="#000" stroke-width="4" d="M101 168c2.17 1.83 6.3 7.5 5.5 15.5"/><path stroke="#f9c9b6" stroke-width="4" d="M111 196a24 24 0 1 1-24 24c0-6.4 3.5-11.5 6.57-16.5l.93-1.5"/><g stroke="#000" stroke-width="4"><path fill="#f4d150" d="M179.77 339.58 181 338l-1.23 1.58 1.72 1.34 1.19-1.83v-.02l.05-.06.04-.05a29 29 0 0 1 .8-1.18 112.4 112.4 0 0 1 11.5-14.05c3.67-3.78 7.83-7.4 12.13-9.93 4.31-2.53 8.58-3.84 12.53-3.3 42.44 5.7 73.67 24.5 93.94 52.5H40.37c16.3-29.34 39.49-48.02 77.07-56.59 1.6-.36 3.78-.25 6.5.38 2.7.63 5.77 1.73 9.09 3.19 6.62 2.9 14.02 7.16 20.97 11.56a356 356 0 0 1 25.24 17.63l.4.3.1.08.02.02h.01Z"/><path fill="#f4d150" d="m105.61 309.08 5.17-19.23c.2-.78 1.22-1 1.76-.4 14.86 16.25 33.62 15.63 39.86 14.88.84-.1 1.5.82 1.1 1.58l-13.16 24.95c-.2.38-.62.6-1.04.5-3.95-.82-23.62-5.63-33.57-21.5a1 1 0 0 1-.12-.78Zm130.59-.1-11.59-19.48c-.4-.66-1.37-.65-1.79 0-5.73 8.83-15.63 12.9-19.09 14.1-.62.22-.9.96-.57 1.53l13.5 22.81c.2.34.59.53.97.42 2.13-.61 9.46-3.67 18.54-18.34a1 1 0 0 0 .01-1.04Z"/><path fill="#fff" fill-opacity=".75" d="m105.61 309.08 5.17-19.23c.2-.78 1.22-1 1.76-.4 14.86 16.25 33.62 15.63 39.86 14.88.84-.1 1.5.82 1.1 1.58l-13.16 24.95c-.2.38-.62.6-1.04.5-3.95-.82-23.62-5.63-33.57-21.5a1 1 0 0 1-.12-.78Zm130.59-.1-11.59-19.48c-.4-.66-1.37-.65-1.79 0-5.73 8.83-15.63 12.9-19.09 14.1-.62.22-.9.96-.57 1.53l13.5 22.81c.2.34.59.53.97.42 2.13-.61 9.46-3.67 18.54-18.34a1 1 0 0 0 .01-1.04Z"/><path fill="#000" stroke-linejoin="round" d="m162.5 326.5-9-21.5-7 15zm31.5-1 9-21.5 7 15zM123.5 286l-12 3 10 6.5zm89.5 0 11 3-7 6.5z"/></g></g></svg>